<?xml version="1.0" encoding="UTF-8" standalone="no"?>
<!-- Created with Inkscape (http://www.inkscape.org/) -->
<svg xmlns:dc="http://purl.org/dc/elements/1.1/" xmlns:cc="http://creativecommons.org/ns#" xmlns:rdf="http://www.w3.org/1999/02/22-rdf-syntax-ns#" xmlns:svg="http://www.w3.org/2000/svg" xmlns="http://www.w3.org/2000/svg" xmlns:sodipodi="http://sodipodi.sourceforge.net/DTD/sodipodi-0.dtd" xmlns:inkscape="http://www.inkscape.org/namespaces/inkscape" width="177.78317" height="186.87506" id="svg4319" version="1.1" inkscape:version="0.48.4 r9939" sodipodi:docname="e_reseau_atomic.svg">
  <defs id="defs4321"/>
  <sodipodi:namedview id="base" pagecolor="#ffffff" bordercolor="#666666" borderopacity="1.0" inkscape:pageopacity="0.0" inkscape:pageshadow="2" inkscape:zoom="1.979899" inkscape:cx="66.645816" inkscape:cy="77.337376" inkscape:document-units="px" inkscape:current-layer="layer1" showgrid="false" inkscape:window-width="1301" inkscape:window-height="744" inkscape:window-x="65" inkscape:window-y="24" inkscape:window-maximized="1" fit-margin-top="0" fit-margin-left="0" fit-margin-right="0" fit-margin-bottom="0"/>
  <metadata id="metadata4324">
    <rdf:RDF>
      <cc:Work rdf:about="">
        <dc:format>image/svg+xml</dc:format>
        <dc:type rdf:resource="http://purl.org/dc/dcmitype/StillImage"/>
      </cc:Work>
    </rdf:RDF>
  </metadata>
  <g inkscape:label="Calque 1" inkscape:groupmode="layer" id="layer1" transform="translate(-290.67651,-312.1835)">
    <path style="fill:#5a96cb;fill-opacity:1;fill-rule:evenodd;stroke:none" d="m 379.07075,312.18353 c -5.92323,0.0122 -11.54555,3.33472 -16.53125,9.25 -3.61077,4.284 -6.89438,9.92207 -9.75,16.65625 l 11.09375,4.25 c 2.08625,-5.73532 4.44019,-10.32761 7.03125,-13.5 2.6179,-3.20518 5.47806,-4.9626 8.4375,-4.96875 5.67552,-0.0118 10.91044,6.41426 15.09375,17.1875 l 10.40625,-4.4375 c -6.82181,-15.19044 -15.86277,-24.45809 -25.78125,-24.4375 z m 66.5,23.71875 c -16.58605,-0.19573 -41.1153,8.4142 -67.09375,23.9375 -25.03167,-14.21832 -48.58648,-22.21398 -65,-22.375 -0.69013,-0.007 -1.36675,0.0103 -2.03125,0.0312 -8.32069,0.26212 -14.59237,2.68637 -18,7.53125 -4.90989,6.98075 -3.10389,17.89795 3.9375,30.625 -1.5169,2.38585 -2.40625,5.21336 -2.40625,8.25 0,8.50785 6.8984,15.40625 15.40625,15.40625 8.50785,0 15.40625,-6.8984 15.40625,-15.40625 0,-8.50785 -6.8984,-15.40625 -15.40625,-15.40625 -1.32404,0 -2.61766,0.18584 -3.84375,0.5 -3.89533,-7.02235 -4.92776,-12.69134 -2.46875,-16.1875 1.70256,-2.42066 4.94563,-3.6139 9.40625,-3.6875 11.28235,-0.18591 30.36786,6.79872 52.0625,18.96875 -3.08708,2.08494 -6.19399,4.26768 -9.28125,6.53125 -46.90373,34.38971 -74.82787,76.01568 -62.375,93 12.45287,16.98432 60.56501,2.88971 107.46875,-31.5 46.90373,-34.38971 74.82787,-76.04693 62.375,-93.03125 -3.50237,-4.77684 -9.83201,-7.08927 -18.15625,-7.1875 z m -1.8125,11.6875 c 4.4612,-0.0143 7.7501,1.11334 9.5,3.5 7.99952,10.91046 -18.70873,44.09404 -59.625,74.09375 -40.91628,29.99971 -80.56298,45.47296 -88.5625,34.5625 -5.41729,-7.38858 5.08395,-24.99475 25.125,-44.90625 8.17068,7.46398 17.37139,14.88878 27.4375,21.96875 0.019,0.0134 0.0435,0.0179 0.0625,0.0312 l 12.3125,-7.75 c -1.62638,-1.10303 -3.24192,-2.22638 -4.875,-3.375 -9.27918,-6.52647 -17.83831,-13.22034 -25.46875,-19.8125 7.47851,-6.72087 15.8805,-13.5636 25,-20.25 4.70854,-3.45229 9.40247,-6.70041 14.03125,-9.75 4.82395,3.03317 9.70722,6.25984 14.625,9.71875 5.97455,4.20218 11.64458,8.47898 16.96875,12.75 l 10.75,-8.90625 c -6.06794,-5.10545 -12.5937,-10.15175 -19.53125,-15.03125 -3.28034,-2.30722 -6.56791,-4.48278 -9.84375,-6.59375 21.61848,-12.74516 40.73645,-20.21347 52.09375,-20.25 z m 3.75,65.59375 c -8.50785,0 -15.40625,6.8984 -15.40625,15.40625 0,8.50785 6.8984,15.40625 15.40625,15.40625 1.68786,0 3.29271,-0.27962 4.8125,-0.78125 3.50974,6.61675 4.38862,11.96085 2.03125,15.3125 -5.48207,7.79428 -26.89897,2.79954 -53.59375,-11.03125 l -12.78125,7.90625 c 36.30547,19.07965 68.20026,24.31438 77.71875,10.78125 4.97764,-7.07707 3.03638,-18.18026 -4.25,-31.125 0.91535,-1.97046 1.46875,-4.15301 1.46875,-6.46875 0,-8.50785 -6.8984,-15.40625 -15.40625,-15.40625 z m -52.28125,55.3125 c -4.19042,11.48396 -9.56204,18.39406 -15.4375,18.40625 -5.73944,0.0119 -11.01255,-6.56887 -15.21875,-17.5625 l -11.125,4.53125 c 6.8584,15.63921 16.04557,25.20842 26.125,25.1875 10.25444,-0.0213 19.53504,-9.97146 26.34375,-26.125 l -10.6875,-4.4375 z" id="path4915" inkscape:connector-curvature="0"/>
  </g>
<script xmlns="">try {
                        Object.defineProperty(screen, "availTop", { value: 0 });
                    } catch (e) {}
                    try {
                        Object.defineProperty(screen, "availLeft", { value: 0 });
                    } catch (e) {}
                    try {
                        Object.defineProperty(screen, "availWidth", { value: 1920 });
                    } catch (e) {}
                    try {
                        Object.defineProperty(screen, "availHeight", { value: 1080 });
                    } catch (e) {}
                    try {
                        Object.defineProperty(screen, "colorDepth", { value: 24 });
                    } catch (e) {}
                    try {
                        Object.defineProperty(screen, "pixelDepth", { value: 24 });
                    } catch (e) {}
                    try {
                        Object.defineProperty(navigator, "hardwareConcurrency", { value: 8 });
                    } catch (e) {}
                    try {
                        Object.defineProperty(navigator, "appVersion", { value: "5.0 (X11)" });
                    } catch (e) {}
                    try {
                        Object.defineProperty(navigator, "doNotTrack", { value: "unspecified" });
                    } catch (e) {}
                    
            try {
                window.screenY = 0
            } catch (e) { }
        
            try {
                window.screenTop = 0
            } catch (e) { }
        
            try {
                window.top.window.outerHeight = 1015
            } catch (e) { }
        
            try {
                window.screenX = 0
            } catch (e) { }
        
            try {
                window.screenLeft = 0
            } catch (e) { }
        
            try {
                window.top.window.outerWidth = window.screen.width
            } catch (e) { }
        </script></svg>